Coordinates
version=1
nRows=10
nColumns=63
inDegrees=yes

Units are S.I. units (second, meters, Newtons, ...)
If the header above contains a line with 'inDegrees', this indicates whether rotational values are in degrees (yes) or radians (no).

endheader
time	pelvis_tilt	pelvis_list	pelvis_rotation	pelvis_tx	pelvis_ty	pelvis_tz	hip_flexion_r	hip_adduction_r	hip_rotation_r	knee_angle_r	knee_angle_r_beta	ankle_angle_r	subtalar_angle_r	mtp_angle_r	hip_flexion_l	hip_adduction_l	hip_rotation_l	knee_angle_l	knee_angle_l_beta	ankle_angle_l	subtalar_angle_l	mtp_angle_l	L5_S1_Flex_Ext	L5_S1_Lat_Bending	L5_S1_axial_rotation	L4_L5_Flex_Ext	L4_L5_Lat_Bending	L4_L5_axial_rotation	L3_L4_Flex_Ext	L3_L4_Lat_Bending	L3_L4_axial_rotation	L2_L3_Flex_Ext	L2_L3_Lat_Bending	L2_L3_axial_rotation	L1_L2_Flex_Ext	L1_L2_Lat_Bending	L1_L2_axial_rotation	L1_T12_Flex_Ext	L1_T12_Lat_Bending	L1_T12_axial_rotation	Abs_r3	Abs_r2	Abs_r1	Abs_t1	Abs_t2	neck_flexion	neck_bending	neck_rotation	arm_flex_r	arm_add_r	arm_rot_r	elbow_flex_r	pro_sup_r	wrist_flex_r	wrist_dev_r	arm_flex_l	arm_add_l	arm_rot_l	elbow_flex_l	pro_sup_l	wrist_flex_l	wrist_dev_l
      2.21568627	     -1.48804273	     -3.62463200	     80.41248643	      0.01244482	      0.95570823	      0.52878074	      0.06018941	      0.14611562	      6.55592358	      4.69972608	      0.08202569	     26.43674300	      3.50919059	      0.00000000	     -1.84323524	      0.32477362	      3.83754360	      1.80049965	      0.03142465	     23.19245583	    -12.16680706	      0.00000000	     -0.03366793	      0.03872004	      2.09825441	     -0.06252472	      0.05149765	      2.22939531	     -0.05531305	      0.09414391	      2.22939531	     -0.03847908	      0.09414391	      1.83597261	     -0.03126404	      0.07895791	      1.70483171	     -0.01923786	      0.05997734	      1.57369081	     -0.24048668	      0.43800884	     11.66986155	      0.00000000	      0.00000000	     22.41958174	      0.88474924	      1.43390223	     -3.26226332	    -11.29531653	     25.72289354	     30.20431307	     77.74323694	     -5.35761253	     -0.41240550	     10.91516782	    -11.94065331	     71.41687188	     19.93399483	     51.38349928	    -11.29390502	     -1.62134856
      2.23529412	     -1.65126986	     -3.49772372	     80.55947687	      0.01250387	      0.95591517	      0.52809516	     -0.14674442	     -0.08284780	      5.56818368	      4.79070801	      0.08361363	     26.43156093	      4.61529308	      0.00000000	     -1.96988460	      0.46504807	      2.63548844	      1.82260298	      0.03181042	     23.61987353	     -9.99293027	      0.00000000	     -0.06969270	      0.00748162	      2.09889353	     -0.12942631	      0.00995055	      2.23007437	     -0.11449813	      0.01819081	      2.23007437	     -0.07965178	      0.01819081	      1.83653183	     -0.06471664	      0.01525652	      1.70535099	     -0.03982241	      0.01158903	      1.57417014	     -0.49780797	      0.08463357	     11.67341612	      0.00000000	      0.00000000	     22.75458961	      0.96311615	      0.86530964	     -3.19550305	    -11.24145176	     26.22897576	     30.40785550	     76.41487345	     -5.89049981	     -0.55823254	     10.97250141	    -12.12390201	     71.32755651	     20.11187037	     51.17548645	    -11.16946120	     -0.92168177
      2.25490196	     -1.64283248	     -3.59420879	     80.22532631	      0.01311571	      0.95568804	      0.52726482	     -0.23804840	      0.05015759	      8.52424215	      4.67270859	      0.08155415	     25.45458464	      0.87820715	      0.00000000	     -2.03186600	      0.47186059	      3.34015015	      1.70637332	      0.02978183	     23.16286733	    -11.66278472	      0.00000000	     -0.06588509	      0.00352841	      2.22747846	     -0.12235520	      0.00469278	      2.36669586	     -0.10824261	      0.00857897	      2.36669586	     -0.07530007	      0.00857897	      1.94904365	     -0.06118089	      0.00719513	      1.80982625	     -0.03764674	      0.00546550	      1.67060884	     -0.47061060	      0.03991406	     12.38856695	      0.00000000	      0.00000000	     23.03906478	      0.33371615	     -0.21290885	     -3.75002615	    -10.95364677	     23.91007826	     30.96464794	     79.18074345	     -5.77120969	     -0.68528891	     11.04387919	    -12.17387137	     71.45313258	     20.07534485	     52.14012189	    -10.65905112	     -0.56953819
      2.27450980	     -1.67726043	     -3.60147726	     80.36392711	      0.01310172	      0.95565024	      0.52686246	     -0.37852150	      0.07130361	      9.91784777	      4.61329904	      0.08051726	     24.77243724	     -1.32978055	      0.00000000	     -2.05813098	      0.51711145	      3.53948263	      1.75000684	      0.03054338	     23.05973213	    -12.12835368	      0.00000000	     -0.08228449	     -0.00556281	      2.20116165	     -0.15281052	     -0.00739853	      2.33873425	     -0.13518518	     -0.01352541	      2.33873425	     -0.09404294	     -0.01352541	      1.92601644	     -0.07640937	     -0.01134368	      1.78844384	     -0.04701735	     -0.00861679	      1.65087124	     -0.58774985	     -0.06292758	     12.24220074	      0.00000000	      0.00000000	     23.30162770	      0.23915613	     -0.52675382	     -3.69526548	    -10.88891417	     23.89240574	     31.15202860	     79.37389428	     -6.12284957	     -1.03877202	     11.00658096	    -12.30511906	     71.07535647	     20.02645572	     53.26353286	    -10.44811926	      0.01361358
      2.29411765	     -1.67243480	     -3.63072630	     80.37886664	      0.01320181	      0.95555090	      0.52641576	     -0.39633585	      0.07697757	      9.91097336	      4.66029684	      0.08133752	     24.60695590	     -1.33145014	      0.00000000	     -2.10321349	      0.51957161	      3.35578933	      1.77382435	      0.03095908	     23.08842227	    -12.26209488	      0.00000000	     -0.08584587	     -0.00643351	      2.17576669	     -0.15942436	     -0.00855657	      2.31175211	     -0.14103618	     -0.01564244	      2.31175211	     -0.09811324	     -0.01564244	      1.90379585	     -0.07971647	     -0.01311922	      1.76781043	     -0.04905233	     -0.00996551	      1.63182502	     -0.61318845	     -0.07277717	     12.10096159	      0.00000000	      0.00000000	     23.39140975	      0.22301528	     -0.54465074	     -3.66008103	    -10.85359199	     23.89825193	     31.25923922	     79.38138882	     -6.12193614	     -1.09737172	     10.81207862	    -12.44729945	     71.16670538	     19.84175909	     53.32135323	    -10.44681666	      0.12735433
      2.31372549	     -1.53192068	     -3.64699597	     80.61877971	      0.01257876	      0.95551460	      0.52662019	     -0.45000835	      0.21933974	     10.06683879	      4.54341457	      0.07929754	     24.45130661	     -1.84006421	      0.00000000	     -2.03996614	      0.41080050	      3.29240734	      1.93405710	      0.03375566	     23.12183373	    -12.55041788	      0.00000000	     -0.10359487	      0.01503790	      2.12882065	     -0.19238604	      0.02000040	      2.26187194	     -0.17019601	      0.03656314	      2.26187194	     -0.11839858	      0.03656314	      1.86271807	     -0.09619820	      0.03066528	      1.72966678	     -0.05919411	      0.02329370	      1.59661549	     -0.73996780	      0.17011170	     11.83986183	      0.00000000	      0.00000000	     23.65079251	      0.03390242	     -0.55790387	     -3.47647698	    -11.03193174	     24.29287016	     31.07664262	     79.60358767	     -6.09787066	     -1.45008254	     11.08437099	    -12.24116958	     72.66617133	     18.99265071	     54.56421732	     -9.84959324	      1.51874770
      2.33333333	     -1.49871117	     -3.66187702	     80.64513574	      0.01264258	      0.95525056	      0.52652685	     -0.43187912	      0.27469187	     10.07994723	      4.45840675	      0.07781388	     24.68909196	     -1.88951570	      0.00000000	     -2.05126347	      0.38249240	      3.10561330	      1.92965252	      0.03367879	     23.24558220	    -12.71855843	      0.00000000	     -0.10514843	      0.01694669	      2.09851176	     -0.19527115	      0.02253910	      2.22966875	     -0.17274836	      0.04120419	      2.22966875	     -0.12017414	      0.04120419	      1.83619779	     -0.09764083	      0.03455770	      1.70504081	     -0.06008181	      0.02625043	      1.57388382	     -0.75106474	      0.19170438	     11.67129286	      0.00000000	      0.00000000	     23.77638222	      0.01713095	     -0.56678253	     -3.51485649	    -11.00148521	     24.31816909	     30.96016608	     79.60310041	     -6.08070841	     -1.42810963	     10.76001761	    -12.40509803	     72.84415907	     18.62567734	     54.66476278	     -9.84157180	      1.70967960
      2.35294118	     -1.37695430	     -3.84665983	     80.91078245	      0.01189569	      0.95506810	      0.52724522	     -0.23386869	      0.40700625	     10.04091182	      4.23239272	      0.07386919	     24.73518537	     -1.88267104	      0.00000000	     -1.75011354	      0.23998088	      3.10940577	      1.99251003	      0.03477586	     23.37867947	    -12.74438750	      0.00000000	     -0.09057527	      0.03790090	      2.02433004	     -0.16820734	      0.05040820	      2.15085067	     -0.14880612	      0.09215225	      2.15085067	     -0.10351848	      0.09215225	      1.77128879	     -0.08410820	      0.07728751	      1.64476816	     -0.05175471	      0.05870849	      1.51824753	     -0.64697012	      0.42874256	     11.25871640	      0.00000000	      0.00000000	     23.91071768	     -0.04180911	     -0.39218093	     -3.22109440	    -11.06608541	     24.75310303	     30.24222209	     79.72060693	     -5.75709186	     -1.36800518	     10.76966785	    -11.91486164	     74.11173478	     17.14368690	     55.57155605	     -9.63327642	      2.72630839
      2.37254902	     -1.19612999	     -3.85623292	     81.56581883	      0.01088372	      0.95483379	      0.52753146	     -0.25595889	      0.59440583	      9.42435674	      4.08586616	      0.07131182	     25.03297229	     -1.78677781	      0.00000000	     -1.59871706	      0.03644558	      3.30403514	      2.07730886	      0.03625588	     23.84305124	    -12.38213622	      0.00000000	     -0.09683051	      0.06130072	      1.91569609	     -0.17982395	      0.08152995	      2.03542710	     -0.15908285	      0.14904656	      2.03542710	     -0.11066759	      0.14904656	      1.67623408	     -0.08991682	      0.12500442	      1.55650308	     -0.05532896	      0.09495481	      1.43677207	     -0.69165068	      0.69344596	     10.65452696	      0.00000000	      0.00000000	     23.95509264	      0.02145951	     -0.24279847	     -3.17937864	    -11.30019013	     25.40331003	     29.82587174	     79.35698739	     -5.36833584	     -1.85231697	     11.02424035	    -11.80756988	     76.76049999	     16.24192114	     56.94493998	     -8.64198468	      3.31290938
      2.39215686	     -1.03800143	     -3.96716511	     81.90405625	      0.00984844	      0.95487471	      0.52827881	     -0.01265808	      0.69349220	      7.34849484	      4.18391560	      0.07302310	     25.66552044	      0.72801102	      0.00000000	     -1.33508078	     -0.13431595	      2.74155170	      2.12848997	      0.03714916	     24.32150690	    -11.40897169	      0.00000000	     -0.09464879	      0.09235843	      1.87124131	     -0.17577227	      0.12283671	      1.98819390	     -0.15549850	      0.22456028	      1.98819390	     -0.10817410	      0.22456028	      1.63733615	     -0.08789087	      0.18833730	      1.52038357	     -0.05408232	      0.14306320	      1.40343099	     -0.67606684	      1.04477699	     10.40728282	      0.00000000	      0.00000000	     24.02750500	     -0.21554664	     -0.15491409	     -2.97572628	    -11.65474917	     26.81538557	     29.23542903	     77.57162200	     -5.62132497	     -2.35497627	     14.11030923	     -9.96103819	    115.54932783	     12.27678028	     20.52242612	     -6.86004234	     -1.29328142
